<svg xmlns="http://www.w3.org/2000/svg" width="423.499" height="423.499" viewBox="0 0 423.499 423.499">
  <path id="check-circle-regular" d="M219.75,8C102.8,8,8,102.8,8,219.75S102.8,431.5,219.75,431.5,431.5,336.7,431.5,219.75,336.7,8,219.75,8Zm0,40.984A170.766,170.766,0,1,1,48.984,219.75,170.674,170.674,0,0,1,219.75,48.984M339.46,160.209l-19.242-19.4a10.245,10.245,0,0,0-14.489-.058l-120.69,119.72-51.052-51.466a10.246,10.246,0,0,0-14.489-.059l-19.4,19.242a10.246,10.246,0,0,0-.058,14.49l77.511,78.139a10.245,10.245,0,0,0,14.49.058L339.4,174.7A10.248,10.248,0,0,0,339.46,160.209Z" transform="translate(-8 -8)" fill="#28c464"/>
</svg>
