<svg xmlns="http://www.w3.org/2000/svg" width="452.793" height="452.756" viewBox="0 0 452.793 452.756">
  <path id="paper-plane-regular" d="M389.094,5.751,21.228,217.894c-30.42,17.6-27.5,62.608,5.04,75.961l101.075,41.827v74.635c0,41.032,52.35,57.922,76.58,25.291l38.732-52.262L341.608,424.2a42.537,42.537,0,0,0,58.187-32.807l52.527-342.4c5.394-35.46-32.63-60.84-63.227-43.242Zm-219.3,404.566V353.191l32.365,13.353Zm188-25.379-136-56.153L345.764,149.891c9.462-13.707-8.4-29.624-20.958-18.747L137.778,294.12l-95.327-39.44L410.317,42.449Z" transform="translate(-0.043 -0.024)" fill="#e89228"/>
</svg>
