<svg xmlns="http://www.w3.org/2000/svg" width="975" height="975" viewBox="0 0 975 975">
  <path id="plus-circle-solid" d="M495.5,8C226.2,8,8,226.2,8,495.5S226.2,983,495.5,983,983,764.8,983,495.5,764.8,8,495.5,8ZM778.565,550.54a23.658,23.658,0,0,1-23.589,23.589H574.129V754.976a23.658,23.658,0,0,1-23.589,23.589H440.46a23.658,23.658,0,0,1-23.589-23.589V574.129H236.024a23.658,23.658,0,0,1-23.589-23.589V440.46a23.658,23.658,0,0,1,23.589-23.589H416.871V236.024a23.658,23.658,0,0,1,23.589-23.589H550.54a23.658,23.658,0,0,1,23.589,23.589V416.871H754.976a23.658,23.658,0,0,1,23.589,23.589Z" transform="translate(-8 -8)" fill="#28c464"/>
</svg>
