<svg xmlns="http://www.w3.org/2000/svg" width="353.067" height="376.608" viewBox="0 0 353.067 376.608">
  <path id="star-of-life-solid" d="M347.179,245.994,247.194,188.3l99.985-57.69a11.766,11.766,0,0,0,4.31-16.079L327.937,73.762a11.781,11.781,0,0,0-16.087-4.31l-99.985,57.69V11.769A11.772,11.772,0,0,0,200.089,0H152.983a11.772,11.772,0,0,0-11.776,11.769v115.38L41.222,69.459a11.781,11.781,0,0,0-16.087,4.31L1.582,114.535a11.768,11.768,0,0,0,4.31,16.079l99.985,57.69L5.892,245.994a11.768,11.768,0,0,0-4.31,16.079l23.553,40.772a11.788,11.788,0,0,0,16.087,4.31l99.985-57.69V364.839a11.772,11.772,0,0,0,11.776,11.769h47.105a11.772,11.772,0,0,0,11.776-11.769V249.459l99.985,57.69a11.775,11.775,0,0,0,16.087-4.31l23.553-40.772a11.759,11.759,0,0,0-4.31-16.072Z" transform="translate(-0.002)" fill="#dd2a00"/>
</svg>
